<svg xmlns="http://www.w3.org/2000/svg" version="1.1" xmlns:xlink="http://www.w3.org/1999/xlink" xmlns:svgjs="http://svgjs.dev/svgjs" width="1000" height="356" viewBox="0 0 1000 356"><g transform="matrix(1,0,0,1,-0.6060606060606233,0.10682745756076883)"><svg viewBox="0 0 396 141" data-background-color="#fafafa" preserveAspectRatio="xMidYMid meet" height="356" width="1000" xmlns="http://www.w3.org/2000/svg" xmlns:xlink="http://www.w3.org/1999/xlink"><g id="tight-bounds" transform="matrix(1,0,0,1,0.2400000000000091,-0.04231087504513198)"><svg viewBox="0 0 395.52 141.08462175009024" height="141.08462175009024" width="395.52"><g><svg viewBox="0 0 652.7327305876306 232.8341181200936" height="141.08462175009024" width="395.52"><g transform="matrix(1,0,0,1,0,32.17895554337039)"><svg viewBox="0 0 395.52 168.4762070333528" height="168.4762070333528" width="395.52"><g id="textblocktransform"><svg viewBox="0 0 395.52 168.4762070333528" height="168.4762070333528" width="395.52" id="textblock"><g><svg viewBox="0 0 395.52 103.26595023440316" height="103.26595023440316" width="395.52"><g transform="matrix(1,0,0,1,0,0)"><svg width="395.52" viewBox="0.1 -35.6 138.64000000000001 36.2" height="103.26595023440316" data-palette-color="#130912"><path d="M5.15 0L0.1 0 12-31.65Q12.8-33.7 14.2-34.65 15.6-35.6 17.45-35.6L17.45-35.6Q19.3-35.6 20.73-34.68 22.15-33.75 22.9-31.7L22.9-31.7 34.85 0 29.6 0 26.55-8.45 8.25-8.45 5.15 0ZM16.15-30.05L9.75-12.7 25.1-12.7 18.85-30.05Q18.6-30.7 18.3-31.05 18-31.4 17.45-31.4L17.45-31.4Q16.95-31.4 16.65-31.05 16.35-30.7 16.15-30.05L16.15-30.05ZM65.05 0L59.05 0Q55.65 0 53.72-1.95 51.8-3.9 51.8-7.25L51.8-7.25 51.8-31.9 56.4-31.9 56.4-7.55Q56.4-5.9 57.32-4.93 58.25-3.95 59.9-3.95L59.9-3.95 65.05-3.95 65.05 0ZM65.15-21.55L47.4-21.55 47.4-25.5 65.15-25.5 65.15-21.55ZM81.89 0.6L81.89 0.6Q77.99 0.6 74.99-1.18 71.99-2.95 70.24-5.98 68.49-9 68.49-12.75L68.49-12.75Q68.49-16.5 70.24-19.53 71.99-22.55 74.99-24.33 77.99-26.1 81.89-26.1L81.89-26.1Q85.79-26.1 88.82-24.33 91.84-22.55 93.57-19.53 95.29-16.5 95.29-12.75L95.29-12.75Q95.29-9 93.57-5.98 91.84-2.95 88.82-1.18 85.79 0.6 81.89 0.6ZM81.89-3.35L81.89-3.35Q84.54-3.35 86.49-4.6 88.44-5.85 89.54-7.98 90.64-10.1 90.64-12.75L90.64-12.75Q90.64-15.4 89.54-17.53 88.44-19.65 86.49-20.9 84.54-22.15 81.89-22.15L81.89-22.15Q79.29-22.15 77.32-20.9 75.34-19.65 74.24-17.53 73.14-15.4 73.14-12.75L73.14-12.75Q73.14-10.1 74.24-7.98 75.34-5.85 77.32-4.6 79.29-3.35 81.89-3.35ZM138.74 0L120.19 0Q116.94 0 115.04-1.98 113.14-3.95 113.14-6.85L113.14-6.85Q113.14-8.7 113.89-10 114.64-11.3 116.34-12.7L116.34-12.7 132.19-25.8Q133.04-26.45 133.39-27 133.74-27.55 133.74-28.35L133.74-28.35Q133.74-28.95 133.39-29.5 133.04-30.05 132.51-30.4 131.99-30.75 131.34-30.75L131.34-30.75 114.24-30.75 114.24-35 131.79-35Q133.94-35 135.51-34.1 137.09-33.2 137.91-31.68 138.74-30.15 138.74-28.25L138.74-28.25Q138.74-26.4 137.96-24.98 137.19-23.55 135.59-22.25L135.59-22.25 119.74-9.2Q119.14-8.75 118.76-8.4 118.39-8.05 118.26-7.68 118.14-7.3 118.14-6.7L118.14-6.7Q118.14-6.1 118.46-5.53 118.79-4.95 119.36-4.6 119.94-4.25 120.69-4.25L120.69-4.25 138.74-4.25 138.74 0Z" opacity="1" transform="matrix(1,0,0,1,0,0)" fill="#130912" class="wordmark-text-0" data-fill-palette-color="primary" id="text-0"></path></svg></g></svg></g><g transform="matrix(1,0,0,1,163.310208,127.64456270194012)"><svg viewBox="0 0 232.209792 40.831644331412676" height="40.831644331412676" width="232.209792"><g transform="matrix(1,0,0,1,0,0)"><svg width="232.209792" viewBox="2.3 -35.25 251.63 44.25" height="40.831644331412676" data-palette-color="#130912"><path d="M13.85 0.35Q10.4 0.35 7.78-1.2 5.15-2.75 3.73-5.63 2.3-8.5 2.3-12.3L2.3-12.3Q2.3-16.1 3.73-18.98 5.15-21.85 7.78-23.4 10.4-24.95 13.85-24.95L13.85-24.95Q17.3-24.95 19.95-23.4 22.6-21.85 24.03-18.98 25.45-16.1 25.45-12.3L25.45-12.3Q25.45-8.5 24.03-5.63 22.6-2.75 19.95-1.2 17.3 0.35 13.85 0.35L13.85 0.35ZM13.85-3Q17.45-3 19.38-5.38 21.3-7.75 21.3-12.3L21.3-12.3Q21.3-16.75 19.35-19.18 17.4-21.6 13.85-21.6L13.85-21.6Q10.3-21.6 8.35-19.18 6.4-16.75 6.4-12.3L6.4-12.3Q6.4-7.8 8.33-5.4 10.25-3 13.85-3L13.85-3ZM43.75-24.95Q52.5-24.95 52.5-15.3L52.5-15.3 52.5 0 48.45 0 48.45-15.05Q48.45-18.45 47.12-20 45.8-21.55 42.9-21.55L42.9-21.55Q39.55-21.55 37.55-19.5 35.55-17.45 35.55-13.95L35.55-13.95 35.55 0 31.5 0 31.5-24.35 35.5-24.35 35.5-20.35Q36.7-22.6 38.85-23.78 41-24.95 43.75-24.95L43.75-24.95ZM63.95 0L59.9 0 59.9-35.25 63.95-35.25 63.95 0ZM75.54 0L71.49 0 71.49-24.35 75.54-24.35 75.54 0ZM71.09-30.35L71.09-34.9 75.99-34.9 75.99-30.35 71.09-30.35ZM95.34-24.95Q104.09-24.95 104.09-15.3L104.09-15.3 104.09 0 100.04 0 100.04-15.05Q100.04-18.45 98.72-20 97.39-21.55 94.49-21.55L94.49-21.55Q91.14-21.55 89.14-19.5 87.14-17.45 87.14-13.95L87.14-13.95 87.14 0 83.09 0 83.09-24.35 87.09-24.35 87.09-20.35Q88.29-22.6 90.44-23.78 92.59-24.95 95.34-24.95L95.34-24.95ZM131.89-13.05L131.89-11.55 114.09-11.55Q114.29-7.3 116.39-5.13 118.49-2.95 122.34-2.95L122.34-2.95Q126.59-2.95 130.14-5.85L130.14-5.85 131.49-2.9Q129.89-1.4 127.39-0.53 124.89 0.35 122.29 0.35L122.29 0.35Q116.59 0.35 113.31-3 110.04-6.35 110.04-12.25L110.04-12.25Q110.04-16 111.49-18.88 112.94-21.75 115.56-23.35 118.19-24.95 121.54-24.95L121.54-24.95Q126.39-24.95 129.14-21.78 131.89-18.6 131.89-13.05L131.89-13.05ZM121.59-21.8Q118.39-21.8 116.46-19.8 114.54-17.8 114.19-14.15L114.19-14.15 128.34-14.15Q128.24-17.85 126.49-19.83 124.74-21.8 121.59-21.8L121.59-21.8ZM158.98 0.35Q152.83 0.35 149.23-2.8L149.23-2.8 150.58-5.8Q152.53-4.25 154.56-3.58 156.58-2.9 159.13-2.9L159.13-2.9Q161.83-2.9 163.26-3.83 164.68-4.75 164.68-6.5L164.68-6.5Q164.68-7.95 163.73-8.8 162.78-9.65 160.58-10.15L160.58-10.15 156.48-11.1Q153.38-11.8 151.73-13.5 150.08-15.2 150.08-17.7L150.08-17.7Q150.08-20.95 152.63-22.95 155.18-24.95 159.43-24.95L159.43-24.95Q161.98-24.95 164.28-24.13 166.58-23.3 168.13-21.75L168.13-21.75 166.78-18.8Q163.43-21.65 159.43-21.65L159.43-21.65Q156.88-21.65 155.46-20.68 154.03-19.7 154.03-17.95L154.03-17.95Q154.03-16.5 154.91-15.63 155.78-14.75 157.73-14.3L157.73-14.3 161.88-13.3Q165.28-12.5 166.93-10.88 168.58-9.25 168.58-6.65L168.58-6.65Q168.58-3.45 166.01-1.55 163.43 0.35 158.98 0.35L158.98 0.35ZM186.98-24.95Q195.73-24.95 195.73-15.3L195.73-15.3 195.73 0 191.68 0 191.68-15.05Q191.68-18.45 190.36-20 189.03-21.55 186.13-21.55L186.13-21.55Q182.78-21.55 180.78-19.5 178.78-17.45 178.78-13.95L178.78-13.95 178.78 0 174.73 0 174.73-35.25 178.78-35.25 178.78-20.45Q179.98-22.65 182.11-23.8 184.23-24.95 186.98-24.95L186.98-24.95ZM213.23 0.35Q209.78 0.35 207.15-1.2 204.53-2.75 203.1-5.63 201.68-8.5 201.68-12.3L201.68-12.3Q201.68-16.1 203.1-18.98 204.53-21.85 207.15-23.4 209.78-24.95 213.23-24.95L213.23-24.95Q216.68-24.95 219.33-23.4 221.98-21.85 223.4-18.98 224.83-16.1 224.83-12.3L224.83-12.3Q224.83-8.5 223.4-5.63 221.98-2.75 219.33-1.2 216.68 0.35 213.23 0.35L213.23 0.35ZM213.23-3Q216.83-3 218.75-5.38 220.68-7.75 220.68-12.3L220.68-12.3Q220.68-16.75 218.73-19.18 216.78-21.6 213.23-21.6L213.23-21.6Q209.68-21.6 207.73-19.18 205.78-16.75 205.78-12.3L205.78-12.3Q205.78-7.8 207.7-5.4 209.63-3 213.23-3L213.23-3ZM243.13-24.95Q246.33-24.95 248.78-23.35 251.23-21.75 252.58-18.88 253.93-16 253.93-12.2L253.93-12.2Q253.93-8.4 252.58-5.58 251.23-2.75 248.8-1.2 246.38 0.35 243.13 0.35L243.13 0.35Q240.28 0.35 238.15-0.9 236.03-2.15 234.93-4.45L234.93-4.45 234.93 9 230.88 9 230.88-24.35 234.93-24.35 234.93-20.15Q236.03-22.45 238.15-23.7 240.28-24.95 243.13-24.95L243.13-24.95ZM242.33-3Q245.88-3 247.83-5.4 249.78-7.8 249.78-12.2L249.78-12.2Q249.78-16.6 247.83-19.07 245.88-21.55 242.33-21.55L242.33-21.55Q238.78-21.55 236.85-19.15 234.93-16.75 234.93-12.3L234.93-12.3Q234.93-7.85 236.85-5.43 238.78-3 242.33-3L242.33-3Z" opacity="1" transform="matrix(1,0,0,1,0,0)" fill="#130912" class="slogan-text-1" data-fill-palette-color="secondary" id="text-1"></path></svg></g></svg></g></svg></g></svg></g><g transform="matrix(1,0,0,1,419.89861246753696,0)"><svg viewBox="0 0 232.8341181200936 232.8341181200936" height="232.8341181200936" width="232.8341181200936"><g data-palette-color="#e77917"><rect width="63.64132561949225" height="232.8341181200936" fill="#e77917" stroke="transparent" data-fill-palette-color="accent" x="0" fill-opacity="1"></rect><rect width="63.64132561949225" height="232.8341181200936" fill="#e77917" stroke="transparent" data-fill-palette-color="accent" x="77.61137270669786" fill-opacity="0.75"></rect><rect width="63.64132561949225" height="232.8341181200936" fill="#e77917" stroke="transparent" data-fill-palette-color="accent" x="155.22274541339573" fill-opacity="0.5"></rect></g></svg></g></svg></g><defs></defs></svg><rect width="395.52" height="141.08462175009024" fill="none" stroke="none" visibility="hidden"></rect></g></svg></g></svg>